<?xml version="1.0" encoding="iso-8859-1"?>
<!-- Generator: Adobe Illustrator 19.0.0, SVG Export Plug-In . SVG Version: 6.00 Build 0)  -->
<svg version="1.1" id="Capa_1" xmlns="http://www.w3.org/2000/svg" xmlns:xlink="http://www.w3.org/1999/xlink" x="0px" y="0px"
	 viewBox="0 0 512 512" style="enable-background:new 0 0 512 512;" xml:space="preserve">
<g transform="translate(-2)">
	<rect x="187.379" y="418.163" style="fill:#95A5A5;" width="141.241" height="80.066"/>
	<path style="fill:#BDC3C7;" d="M478.69,78.654H37.31c-9.366-0.003-18.349,3.717-24.971,10.339S1.997,104.598,2,113.964v291.31
		c-0.003,9.366,3.717,18.348,10.339,24.971s15.605,10.342,24.971,10.339H478.69c9.366,0.003,18.348-3.717,24.971-10.339
		c6.622-6.623,10.342-15.605,10.339-24.971v-291.31c0.003-9.366-3.717-18.349-10.339-24.971
		C497.038,82.37,488.055,78.651,478.69,78.654z"/>
	<path style="fill:#35495E;" d="M514,369.964v-256c0.003-9.366-3.717-18.349-10.339-24.971
		c-6.623-6.623-15.605-10.342-24.971-10.339H37.31c-9.366-0.003-18.348,3.717-24.971,10.339C5.717,95.616,1.997,104.598,2,113.964
		l0,256H514z"/>
	<path style="fill:#BDC3C7;" d="M125.586,475.895h264.828c4.875,0,8.828,3.952,8.828,8.828v17.655c0,4.875-3.952,8.828-8.828,8.828
		H125.586c-4.875,0-8.828-3.952-8.828-8.828v-17.655C116.759,479.847,120.711,475.895,125.586,475.895z"/>
	<path style="fill:#65DDB9;" d="M9.762,286.63l17.944-17.944l48.893,48.893l-17.944,17.944c-10.342,10.342-27.11,10.342-37.452,0
		L9.762,324.082C-0.58,313.74-0.58,296.972,9.762,286.63z"/>
	<path style="fill:#46B29D;" d="M27.96,243.977l48.632-48.632l73.34,73.34L101.3,317.317c-6.895,6.895-18.073,6.895-24.968,0
		L27.96,268.945C21.065,262.05,21.065,250.872,27.96,243.977z"/>
	<path style="fill:#E6E7E8;" d="M76.593,195.346c0,0,91.674-103.897,67.228-165.014l171.125,171.126
		c-61.116-24.447-165.014,67.228-165.014,67.228L76.593,195.346z"/>
	<polygon style="fill:#65DDB9;" points="101.037,317.581 195.333,369.964 223.272,342.025 149.933,268.685 	"/>
	<path style="fill:#46B29D;" d="M339.39,201.446c-3.232,3.263-7.634,5.098-12.226,5.098c-4.592,0-8.994-1.836-12.226-5.098
		L143.859,30.367c-4.922-4.954-6.394-12.376-3.734-18.834s8.933-10.69,15.916-10.739c4.605,0.023,9.015,1.863,12.27,5.12
		l53.583,53.583v0.088l62.146,62.058l55.349,55.349c3.263,3.232,5.098,7.634,5.098,12.226S342.653,198.214,339.39,201.446z"/>
	<path style="fill:#BDC3C7;" d="M221.895,59.586v-0.088c8.455-10.2,21.003-16.118,34.251-16.154
		c20.977-0.003,39.058,14.758,43.255,35.31c0.608,2.903,0.904,5.862,0.883,8.828c0.008,13.253-5.959,25.803-16.243,34.163
		L221.895,59.586z"/>
	<g>
		<path style="fill:#E6E7E8;" d="M408.069,272.861h-79.448c-4.875,0-8.828-3.952-8.828-8.828s3.952-8.828,8.828-8.828h79.448
			c4.875,0,8.828,3.952,8.828,8.828S412.944,272.861,408.069,272.861z"/>
		<path style="fill:#E6E7E8;" d="M416.897,237.55h-26.483c-4.875,0-8.828-3.952-8.828-8.828s3.952-8.828,8.828-8.828h26.483
			c4.875,0,8.828,3.952,8.828,8.828S421.772,237.55,416.897,237.55z"/>
		<path style="fill:#E6E7E8;" d="M478.69,237.55h-26.483c-4.875,0-8.828-3.952-8.828-8.828s3.952-8.828,8.828-8.828h26.483
			c4.875,0,8.828,3.952,8.828,8.828S483.565,237.55,478.69,237.55z"/>
		<path style="fill:#E6E7E8;" d="M478.69,272.861h-35.31c-4.875,0-8.828-3.952-8.828-8.828s3.952-8.828,8.828-8.828h35.31
			c4.875,0,8.828,3.952,8.828,8.828S483.565,272.861,478.69,272.861z"/>
	</g>
	<path style="fill:#4482C3;" d="M346.276,299.343h114.759c9.751,0,17.655,7.905,17.655,17.655l0,0
		c0,9.751-7.905,17.655-17.655,17.655H346.276c-9.751,0-17.655-7.904-17.655-17.655l0,0
		C328.621,307.248,336.525,299.343,346.276,299.343z"/>
</g>
<g>
</g>
<g>
</g>
<g>
</g>
<g>
</g>
<g>
</g>
<g>
</g>
<g>
</g>
<g>
</g>
<g>
</g>
<g>
</g>
<g>
</g>
<g>
</g>
<g>
</g>
<g>
</g>
<g>
</g>
</svg>
